<!-- Hallmark · component: identity lockup · genre: editorial · theme: Dusori custom · pre-emit critique: P5 H5 E5 S5 R5 V4 -->
<svg xmlns="http://www.w3.org/2000/svg" width="560" height="160" viewBox="0 0 560 160" role="img" aria-labelledby="title description">
  <title id="title">Dusori</title>
  <desc id="description">The Dusori neural ensō mark beside the Dusori wordmark.</desc>
  <style>
    .ink-line { fill: none; stroke: #1a1511; stroke-linecap: round; stroke-linejoin: round; }
    .memory { fill: #cb4832; }
    .wordmark { fill: #1a1511; }
  </style>
  <g transform="translate(8 8) scale(.56)">
    <path class="ink-line" stroke-width="22" d="M183 43C148 20 96 25 63 57C28 91 27 149 59 187C91 225 148 231 187 200C223 171 233 119 212 77" />
    <path class="ink-line" stroke-width="9" d="M98 83C116 104 125 127 123 153C121 171 115 185 106 195M114 108C101 102 91 91 83 79M116 106C130 95 140 82 146 68M123 153C147 138 166 120 179 99M123 153C145 157 163 164 180 174" />
    <circle class="memory" cx="123" cy="153" r="9" />
  </g>
  <g aria-label="Dusori">
    <path class="wordmark" d="M50 13Q50 25 58 25H71Q111 25 133 40.5Q155 56 155 99V633Q155 677 133 692.5Q111 708 71 708H58Q51 708 51 721Q51 733 58 733Q142 735 220 735Q320 735 381 732Q469 728 550 690Q631 652 684.5 571.5Q738 491 738 367Q738 243 684.5 162.5Q631 82 550 43.5Q469 5 381 1Q343-1 231-1L58 0Q50 0 50 13ZM357 30Q413 30 471.5 58Q530 86 572.5 161Q615 236 615 367Q615 498 572.5 572.5Q530 647 472 675Q414 703 357 703H350Q304 703 285 689Q266 675 266 640V92Q266 57 285 43.5Q304 30 350 30Z" transform="translate(174 112) scale(.076 -.076)" />
    <path class="wordmark" d="M591 24Q591 15 584 13Q575 11 412-11L411 78Q347-11 256-11Q173-11 134.5 34Q96 79 95 143Q93 219 93 379Q93 410 77 419.5Q61 429 25 431Q16 432 16 445Q16 454 22 456L194 494L193 302Q193 173 194 152Q200 39 286 39Q321 39 353.5 61Q386 83 410 124L407 378Q407 410 391.5 419Q376 428 339 431Q330 432 330 447Q330 453 336 455Q348 459 508 493L509 85Q509 44 555 38Q561 37 573 37Q584 37 587.5 33.5Q591 30 591 24Z" transform="translate(233.496 112) scale(.076 -.076)" />
    <path class="wordmark" d="M49 144L48 149Q48 156 56 159Q58 160 62 160Q69 160 73 153Q162 18 287 18Q332 18 357 41.5Q382 65 382 101Q382 123 368.5 141.5Q355 160 330 171Q299 185 229 206Q190 216 161 228Q117 248 93 279.5Q69 311 69 352Q69 382 85 415Q101 448 136.5 470.5Q172 493 225 493Q252 493 274 488.5Q296 484 323 476Q344 469 350 469Q365 469 380 478Q395 487 404 502L436 393L446 360Q447 357 447 353Q447 347 439 343Q437 342 433 342Q427 342 422 347Q388 396 332 429.5Q276 463 223 463Q178 463 157 439.5Q136 416 136 391Q136 371 150 356Q164 341 195 326Q212 318 274 298Q342 278 373 263Q417 242 441 209.5Q465 177 465 134Q465 66 415.5 26Q366-14 285-14Q259-14 234.5-9Q210-4 175 6Q168 8 156.5 11Q145 14 140 14Q126 14 114.5 6.5Q103-1 90-17Z" transform="translate(280.148 112) scale(.076 -.076)" />
    <path class="wordmark" d="M45 240Q45 306 75 364Q105 422 161 457.5Q217 493 291 493Q365 493 421 457.5Q477 422 507 364Q537 306 537 240Q537 177 506.5 118.5Q476 60 420 23Q364-14 291-14Q218-14 162 23Q106 60 75.5 118.5Q45 177 45 240ZM428 240Q428 337 392 400Q356 463 291 463Q226 463 190 400Q154 337 154 240Q154 146 190.5 81.5Q227 17 291 17Q355 17 391.5 81.5Q428 146 428 240Z" transform="translate(317.528 112) scale(.076 -.076)" />
    <path class="wordmark" d="M452 427Q452 407 437 393Q422 379 400 379Q387 379 376.5 384.5Q366 390 351 401Q324 422 305 422Q282 422 258 400Q234 378 214 341L213 70Q213 42 229 33.5Q245 25 274 25H285Q293 25 293 12Q293 0 285 0H42Q35 0 35 12Q35 25 42 25H54Q83 25 98.5 33.5Q114 42 114 70L112 379Q112 410 96.5 419Q81 428 44 431Q35 432 35 447Q35 454 40 456Q52 460 214 494V387Q246 434 287 464Q328 494 368 494Q404 494 428 474Q452 454 452 427Z" transform="translate(360.76 112) scale(.076 -.076)" />
    <path class="wordmark" d="M92 674Q92 703 112 723Q132 743 161 743Q190 743 210 723Q230 703 230 674Q230 645 210 625Q190 605 161 605Q133 605 112.5 625.5Q92 646 92 674ZM44 0Q36 0 36 13Q36 26 44 26H55Q85 26 101.5 34.5Q118 43 118 72L116 378Q116 400 108 410.5Q100 421 87 425Q74 429 49 431Q43 431 41.5 434.5Q40 438 40 444Q40 448 41 451Q42 454 45 455Q57 459 218 493V72Q218 43 235 34.5Q252 26 281 26H293Q300 26 300 13Q300 0 293 0Z" transform="translate(394.492 112) scale(.076 -.076)" />
  </g>
</svg>
