<svg xmlns="http://www.w3.org/2000/svg" viewBox="0 0 64 64"><path d="M55.42 25.72 C56.88 31.16 58.11 37.28 55.61 42.76 C53.11 48.24 48.93 52.86 43.47 55.52 C38.01 58.18 31.79 58.94 25.87 57.52 C19.95 56.1 14.77 52.58 11.12 47.73 C7.47 42.88 5.86 36.88 6.12 30.87 C6.38 24.86 8.97 19.26 12.95 14.84 C16.93 10.42 22.39 7.68 28.24 6.81 C34.09 5.94 39.58 8.57 44.35 11.44 C46.05 12.46 44.52 15.01 42.82 13.99 C38.64 11.48 33.59 12.02 29.11 12.69 C24.63 13.36 20.62 15.7 17.61 19.04 C14.6 22.38 13.11 26.74 12.92 31.17 C12.73 35.6 14.31 39.85 16.94 43.35 C19.57 46.85 23.39 49.21 27.62 50.23 C31.85 51.25 36.32 50.84 40.25 48.92 C44.18 47 47.5 43.92 49.33 39.9 C51.16 35.88 53.29 31.28 52.04 26.63 C51.44 24.38 54.82 23.47 55.42 25.72Z" fill="#1a1511"></path><g stroke="#c9862e" fill="none"><circle cx="32" cy="32" r="5.3" stroke-width="1.1"></circle><path d="M32 27.4 L32 36.6 M27.4 32 L36.6 32 M28.75 28.75 L35.25 35.25 M35.25 28.75 L28.75 35.25" stroke-width="0.95"></path></g><circle cx="32" cy="32" r="1.15" fill="#c9862e"></circle><path d="M53.6 15.7 L56.8 13.2" fill="none" stroke="#1a1511" stroke-width="2.2" stroke-linecap="round"></path><path d="M51.2 14.6 L54.1 18.3" fill="none" stroke="#1a1511" stroke-width="1.6" stroke-linecap="round"></path><path d="M49.51 16.74 L51.49 19.26 L25.5 36.5 Z" fill="#cb4832"></path></svg>