<!-- Hallmark · component: favicon · genre: editorial · theme: Dusori custom · pre-emit critique: P5 H5 E5 S5 R5 V4 -->
<svg xmlns="http://www.w3.org/2000/svg" viewBox="0 0 64 64" role="img" aria-labelledby="title">
  <title id="title">Dusori</title>
  <style>
    .paper { fill: #f7f1e8; }
    .ink { fill: none; stroke: #1a1511; stroke-linecap: round; stroke-linejoin: round; }
    .memory { fill: #cb4832; }
  </style>
  <rect class="paper" width="64" height="64" rx="14" />
  <g transform="translate(9 9) scale(.18)">
    <path class="ink" stroke-width="22" d="M183 43C148 20 96 25 63 57C28 91 27 149 59 187C91 225 148 231 187 200C223 171 233 119 212 77" />
    <path class="ink" stroke-width="9" d="M98 83C116 104 125 127 123 153C121 171 115 185 106 195M114 108C101 102 91 91 83 79M116 106C130 95 140 82 146 68M123 153C147 138 166 120 179 99M123 153C145 157 163 164 180 174" />
    <circle class="memory" cx="123" cy="153" r="9" />
  </g>
</svg>
