<svg xmlns="http://www.w3.org/2000/svg" viewBox="0 0 640 180" role="img" aria-labelledby="title desc">
  <title id="title">Dusori</title>
  <desc id="desc">An animated open ensō around a rangoli wheel, crossed by a vermilion katana.</desc>
  <style>
    .enso { animation: reveal .9s cubic-bezier(.16,1,.3,1) both; transform-origin: 32px 32px; }
    .wheel { animation: settle 1.2s .18s cubic-bezier(.16,1,.3,1) both; transform-origin: 32px 32px; }
    .blade { animation: enter .85s .34s cubic-bezier(.16,1,.3,1) both; }
    .name { animation: name-in .8s .55s ease-out both; }
    .ink { fill: #1a1511; }
    .paper { fill: #f7f1e8; }
    @keyframes reveal { from { opacity: 0; transform: rotate(-18deg) scale(.92); } }
    @keyframes settle { from { opacity: 0; transform: rotate(-52deg) scale(.55); } }
    @keyframes enter { from { opacity: 0; transform: translate(-22px, 22px); } }
    @keyframes name-in { from { opacity: 0; transform: translateX(-12px); } }
    @media (prefers-color-scheme: dark) {
      .ink { fill: #f7f1e8; }
      .paper { fill: #1a1511; }
    }
    @media (prefers-reduced-motion: reduce) {
      .enso, .wheel, .blade, .name { animation: none; }
    }
  </style>
  <g transform="translate(24 16) scale(2.3)">
    <path class="enso ink" d="M55.77 26.51 C57.03 31.96 58.05 38.06 55.43 43.43 C52.81 48.8 48.57 53.28 43.11 55.83 C37.65 58.38 31.48 59.05 25.62 57.59 C19.76 56.13 14.65 52.61 11.03 47.8 C7.41 42.99 5.8 37.05 6.01 31.09 C6.22 25.13 8.71 19.57 12.58 15.12 C16.45 10.67 21.8 7.86 27.56 6.84 C33.32 5.82 38.85 8.28 43.67 10.95 C44.92 11.64 43.88 13.51 42.63 12.82 C38.24 10.38 33.06 11.05 28.45 11.86 C23.84 12.67 19.75 15.2 16.7 18.7 C13.65 22.2 12.18 26.72 12.02 31.3 C11.86 35.88 13.52 40.27 16.24 43.88 C18.96 47.49 22.89 49.95 27.25 51.04 C31.61 52.13 36.24 51.77 40.33 49.86 C44.42 47.95 47.92 44.84 49.92 40.74 C51.92 36.64 54.16 31.96 53.05 27.14 C52.63 25.33 55.35 24.7 55.77 26.51Z"/>
    <g class="wheel" fill="none" stroke="#c9862e" opacity=".9">
      <circle cx="32" cy="32" r="5.2" stroke-width=".34"/><circle cx="32" cy="32" r="1.9" stroke-width=".3"/>
      <path d="M32 26.8V37.2M26.8 32H37.2M28.32 28.32L35.68 35.68M35.68 28.32L28.32 35.68" stroke-width=".3"/>
      <path d="M36.4 32a2.2 2.2 0 0 1-1.29 3.11A2.2 2.2 0 0 1 32 36.4a2.2 2.2 0 0 1-3.11-1.29A2.2 2.2 0 0 1 27.6 32a2.2 2.2 0 0 1 1.29-3.11A2.2 2.2 0 0 1 32 27.6a2.2 2.2 0 0 1 3.11 1.29A2.2 2.2 0 0 1 36.4 32" stroke-width=".28"/>
      <circle cx="32" cy="32" r="6.8" stroke-width=".22" stroke-dasharray="1.1 2.3" opacity=".7"/><circle cx="32" cy="32" r="7.6" stroke-width=".16" opacity=".4"/>
    </g>
    <g class="blade" transform="translate(8.7 -6.8) rotate(142 32 32)">
      <path class="ink" d="M7.1 30.9h6.7v2.2H7.1Q5.75 32 7.1 30.9Z"/><path class="paper" d="m9.3 31.1.75.9-.75.9-.75-.9Zm2.4 0 .75.9-.75.9-.75-.9Z"/>
      <ellipse class="ink" cx="14.8" cy="32" rx="1.05" ry="3.35"/><path class="ink" d="M15.75 30.95h1.45v2.1h-1.45Z"/>
      <path fill="#cb4832" d="M17.2 30.95h38.7l2.3.35-2.7 1H17.2Z"/><path d="M18.3 31.55h34.9" fill="none" stroke="#f7f1e8" stroke-width=".5" stroke-linecap="round"/>
    </g>
  </g>
  <g class="name">
    <text class="ink" x="198" y="96" font-family="Georgia, 'Times New Roman', serif" font-size="72" font-weight="600" letter-spacing="-2">Dusori</text>
    <text x="202" y="126" fill="#c9862e" font-family="ui-monospace, monospace" font-size="13" letter-spacing="2.4">LOCAL-FIRST LEARNING</text>
  </g>
</svg>
